<?xml version="1.0" standalone="no"?><!DOCTYPE svg PUBLIC "-//W3C//DTD SVG 1.1//EN" "http://www.w3.org/Graphics/SVG/1.1/DTD/svg11.dtd"><svg t="1589034445993" class="icon" viewBox="0 0 1024 1024" version="1.1" xmlns="http://www.w3.org/2000/svg" p-id="1443" xmlns:xlink="http://www.w3.org/1999/xlink" width="200" height="200"><defs><style type="text/css"></style></defs><path d="M384 64H64C28.8 64 0 92.8 0 128v320c0 35.2 28.8 64 64 64h320c35.2 0 64-28.8 64-64V128c0-35.2-28.8-64-64-64z m0 256H64V256h320v64z m512-256H576c-35.2 0-64 28.8-64 64v832c0 35.2 28.8 64 64 64h320c35.2 0 64-28.8 64-64V128c0-35.2-28.8-64-64-64z m0 576H576v-64h320v64z m0-192H576v-64h320v64z m-512 128H64c-35.2 0-64 28.8-64 64v320c0 35.2 28.8 64 64 64h320c35.2 0 64-28.8 64-64V640c0-35.2-28.8-64-64-64z m0 256H256v128H192v-128H64v-64h128v-128h64v128h128v64z" p-id="1444"></path></svg>